<svg width="54" height="46" viewBox="0 0 54 46" fill="none" xmlns="http://www.w3.org/2000/svg">
<path id="Vector" d="M6.8752 5.75C6.06061 5.75 5.37732 5.47496 4.82532 4.92487C4.27524 4.37287 4.0002 3.68958 4.0002 2.875C4.0002 2.06042 4.27524 1.37713 4.82532 0.825126C5.37732 0.275042 6.06061 0 6.8752 0H47.1252C47.9398 0 48.6221 0.275042 49.1722 0.825126C49.7242 1.37713 50.0002 2.06042 50.0002 2.875C50.0002 3.68958 49.7242 4.37287 49.1722 4.92487C48.6221 5.47496 47.9398 5.75 47.1252 5.75H6.8752ZM6.8752 46C6.06061 46 5.37732 45.724 4.82532 45.172C4.27524 44.6219 4.0002 43.9396 4.0002 43.125V28.75H3.49707C2.58665 28.75 1.84395 28.4021 1.26895 27.7064C0.693945 27.0125 0.502279 26.2104 0.693945 25.3L3.56894 10.925C3.71269 10.2542 4.04811 9.70312 4.57519 9.27187C5.10228 8.84062 5.70124 8.625 6.37207 8.625H47.6283C48.2991 8.625 48.8981 8.84062 49.4252 9.27187C49.9523 9.70312 50.2877 10.2542 50.4314 10.925L53.3064 25.3C53.4981 26.2104 53.3064 27.0125 52.7314 27.7064C52.1564 28.4021 51.4137 28.75 50.5033 28.75H50.0002V43.125C50.0002 43.9396 49.7242 44.6219 49.1722 45.172C48.6221 45.724 47.9398 46 47.1252 46C46.3106 46 45.6283 45.724 45.0782 45.172C44.5262 44.6219 44.2502 43.9396 44.2502 43.125V28.75H32.7502V43.125C32.7502 43.9396 32.4752 44.6219 31.9251 45.172C31.3731 45.724 30.6898 46 29.8752 46H6.8752ZM9.7502 40.25H27.0002V28.75H9.7502V40.25ZM7.01895 23H46.9814H7.01895ZM7.01895 23H46.9814L45.2564 14.375H8.74395L7.01895 23Z" fill="#13829B"/>
</svg>
