<svg width="54" height="46" viewBox="0 0 54 46" fill="none" xmlns="http://www.w3.org/2000/svg">
<g id="Group 1">
<path id="Vector" d="M33.5713 46H20.4287V32.8574H33.5713V46ZM23.7144 42.7144H30.2857V36.1431H23.7144V42.7144Z" fill="#13829B"/>
<path id="Vector_2" d="M53.2853 14.7863H36.857V18.0719H43.4284V23.0004H10.5718V18.0719H17.1431V14.7863H0.714844V18.0719H7.28615V26.2861H15.7171L10.5718 34.0024V41.0715H13.8575V34.998L19.6649 26.2861H34.3353L40.1427 34.998V41.0715H43.4284V34.0024L38.283 26.2861H46.714V18.0719H53.2853V14.7863ZM27.0001 6.57215C25.7058 6.57167 24.4242 6.82685 23.2289 7.32304C22.0335 7.81923 20.948 8.54664 20.0345 9.46352L22.3558 11.7848C22.9653 11.1742 23.6892 10.6897 24.4861 10.3591C25.283 10.0286 26.1373 9.8584 27.0001 9.8584C27.8628 9.8584 28.7171 10.0286 29.5141 10.3591C30.311 10.6897 31.0349 11.1742 31.6444 11.7848L33.9673 9.46188C33.0536 8.54503 31.9677 7.81775 30.772 7.32184C29.5764 6.82593 28.2945 6.57115 27.0001 6.57215Z" fill="#13829B"/>
<path id="Vector_3" d="M15.3887 4.81759L17.7116 7.14055C18.9305 5.9192 20.3784 4.95023 21.9722 4.28911C23.5661 3.62798 25.2746 3.28768 27.0002 3.28768C28.7257 3.28768 30.4343 3.62798 32.0281 4.28911C33.622 4.95023 35.0698 5.9192 36.2887 7.14055L38.6117 4.81759C37.0881 3.29047 35.2783 2.07887 33.2858 1.2522C31.2933 0.425521 29.1573 0 27.0002 0C24.843 0 22.707 0.425521 20.7146 1.2522C18.7221 2.07887 16.9122 3.29047 15.3887 4.81759Z" fill="#13829B"/>
</g>
</svg>
