<svg width="48" height="46" viewBox="0 0 48 46" fill="none" xmlns="http://www.w3.org/2000/svg">
<path id="Vector" d="M26.2539 46V41.3769C27.872 41.1457 29.4416 40.7027 30.9626 40.0477C32.4851 39.3928 33.9206 38.5645 35.269 37.5628L38.6208 40.9146C36.8101 42.34 34.8645 43.4866 32.7841 44.3542C30.7037 45.2202 28.527 45.7688 26.2539 46ZM41.8569 37.5628L38.6208 34.3266C39.6224 33.0553 40.4315 31.6583 41.0479 30.1358C41.6643 28.6148 42.0881 27.0067 42.3193 25.3116H47.058C46.7497 27.7002 46.1626 29.9247 45.2965 31.985C44.4289 34.0469 43.2824 35.9062 41.8569 37.5628ZM42.3193 20.6884C42.0881 18.9548 41.6643 17.3267 41.0479 15.8041C40.4315 14.2831 39.6224 12.9062 38.6208 11.6734L41.8569 8.43718C43.3209 10.1323 44.506 12.0201 45.4121 14.1005C46.3167 16.1809 46.8653 18.3769 47.058 20.6884H42.3193ZM21.6308 46C15.7364 45.3065 10.815 42.7738 6.8669 38.4019C2.91722 34.0284 0.942383 28.8945 0.942383 23C0.942383 17.0285 2.91722 11.866 6.8669 7.51256C10.815 3.15913 15.7364 0.654941 21.6308 0V4.62312C17.0077 5.27806 13.1744 7.3392 10.1308 10.8065C7.08727 14.2739 5.5655 18.3384 5.5655 23C5.5655 27.6231 7.08727 31.6683 10.1308 35.1357C13.1744 38.603 17.0077 40.6834 21.6308 41.3769V46ZM35.3846 8.43718C33.9977 7.39698 32.5337 6.54941 30.9926 5.89447C29.4516 5.23953 27.872 4.81575 26.2539 4.62312V0C28.527 0.19263 30.7037 0.721977 32.7841 1.58804C34.8645 2.45564 36.8101 3.62144 38.6208 5.08543L35.3846 8.43718ZM24.0002 34.5578C20.8796 31.8995 18.5588 29.4431 17.0378 27.1885C15.5152 24.9355 14.7539 22.8459 14.7539 20.9196C14.7539 18.0301 15.6886 15.7286 17.5579 14.015C19.4256 12.2998 21.573 11.4422 24.0002 11.4422C26.4273 11.4422 28.5755 12.2998 30.4448 14.015C32.3125 15.7286 33.2464 18.0301 33.2464 20.9196C33.2464 22.8459 32.4851 24.9355 30.9626 27.1885C29.4416 29.4431 27.1208 31.8995 24.0002 34.5578ZM24.0002 23C24.6936 23 25.2815 22.7596 25.7639 22.2788C26.2447 21.7964 26.4851 21.2085 26.4851 20.5151C26.4851 19.8601 26.2447 19.2822 25.7639 18.7814C25.2815 18.2806 24.6936 18.0301 24.0002 18.0301C23.3067 18.0301 22.7196 18.2806 22.2388 18.7814C21.7564 19.2822 21.5152 19.8601 21.5152 20.5151C21.5152 21.2085 21.7564 21.7964 22.2388 22.2788C22.7196 22.7596 23.3067 23 24.0002 23Z" fill="#13829B"/>
</svg>
